<?xml version="1.0" ?>
<!DOCTYPE svg  PUBLIC '-//W3C//DTD SVG 1.1//EN'  'http://www.w3.org/Graphics/SVG/1.1/DTD/svg11.dtd'>
<!-- Uploaded to: SVG Repo, www.svgrepo.com, Generator: SVG Repo Mixer Tools -->
<svg fill="#000000" width="800px" height="800px" viewBox="0 0 64 64" style="fill-rule:evenodd;clip-rule:evenodd;stroke-linejoin:round;stroke-miterlimit:2;" version="1.1" xml:space="preserve" xmlns="http://www.w3.org/2000/svg" xmlns:serif="http://www.serif.com/" xmlns:xlink="http://www.w3.org/1999/xlink">
<g id="ICON">
<path d="M10,39l0,19c0,1.657 1.343,3 3,3c4.69,-0 16,-0 16,-0c0.552,0 1,-0.448 1,-1c0,-0.552 -0.448,-1 -1,-1c0,-0 -11.31,-0 -16,0c-0.552,0 -1,-0.448 -1,-1c0,-0 0,-19 0,-19c0,-0.552 -0.448,-1 -1,-1c-0.552,-0 -1,0.448 -1,1Zm23,22l18,-0c0.796,0 1.559,-0.316 2.121,-0.879c0.563,-0.562 0.879,-1.325 0.879,-2.121l-0,-17c0,-0.552 -0.448,-1 -1,-1c-0.552,-0 -1,0.448 -1,1l0,17c-0,0.265 -0.105,0.52 -0.293,0.707c-0.187,0.188 -0.442,0.293 -0.707,0.293l-18,-0c-0.552,0 -1,0.448 -1,1c0,0.552 0.448,1 1,1Zm-4,-3l6.5,0c0.552,-0 1,-0.448 1,-1c-0,-0.552 -0.448,-1 -1,-1l-6.5,0c-0.552,-0 -1,0.448 -1,1c-0,0.552 0.448,1 1,1Zm-1.5,-3l9.5,0c0.552,0 1,-0.448 1,-1c0,-0.552 -0.448,-1 -1,-1l-9.5,0c-0.552,0 -1,0.448 -1,1c0,0.552 0.448,1 1,1Zm-1.603,-3.284c0.187,0.182 0.437,0.284 0.698,0.284l10.81,0c0.261,0 0.511,-0.102 0.698,-0.284c3.344,-3.257 6.897,-8.272 6.897,-14.756c0,-7.152 -5.824,-12.96 -13,-12.96c-7.176,0 -13,5.808 -13,12.96c-0,6.484 3.553,11.499 6.897,14.756Zm9.103,-1.716c1.173,-0 1.995,-0 1.995,-0c2.941,-2.949 6.005,-7.36 6.005,-13.04c0,-6.05 -4.93,-10.96 -11,-10.96c-6.07,0 -11,4.91 -11,10.96c-0,5.68 3.064,10.091 6.005,13.04l0,0l1.995,-0l0,-10l-2,0c-2.208,0 -4,-1.792 -4,-4c0,-2.208 1.792,-4 4,-4c2.208,0 4,1.792 4,4l0,2l2,0l0,-2c0,-2.208 1.792,-4 4,-4c2.208,0 4,1.792 4,4c0,2.208 -1.792,4 -4,4l-2,0l0,10Zm-4,-10l0,10l2,-0l0,-10l-2,0Zm4,-2l2,0c1.104,0 2,-0.896 2,-2c0,-1.104 -0.896,-2 -2,-2c-1.104,0 -2,0.896 -2,2l0,2Zm-6,0l0,-2c0,-1.104 -0.896,-2 -2,-2c-1.104,0 -2,0.896 -2,2c0,1.104 0.896,2 2,2l2,0Zm-19,-28l0,25c0,0.552 0.448,1 1,1c0.552,-0 1,-0.448 1,-1l0,-19.781c0.017,0.017 0.033,0.034 0.05,0.051c1.313,1.313 3.093,2.05 4.95,2.05c4.893,0 11,0 11,0c0.552,-0 1,-0.448 1,-1c-0,-0.552 -0.448,-1 -1,-1c-0,0 -6.107,0 -11,0c-1.326,0 -2.598,-0.527 -3.536,-1.464c-0.937,-0.938 -1.464,-2.21 -1.464,-3.536c0,-0.107 0,-0.213 0,-0.32c-0,-1.326 0.527,-2.598 1.464,-3.536c0.938,-0.937 2.21,-1.464 3.536,-1.464c0,0 30.954,0 30.954,0l-0,4.16l-30.954,0c-0.552,0 -1,0.448 -1,1c0,0.552 0.448,1 1,1l30.954,0l-0,4.16l-9.381,0l-0.002,0l-6.571,0c-0.552,0 -1,0.448 -1,1c0,0.552 0.448,1 1,1l19,0c0.552,-0 1,0.448 1,1c-0,0 -0,18.18 -0,18.18c0,0.552 0.448,1 1,1c0.552,-0 1,-0.448 1,-1l-0,-18.18c-0,-1.657 -1.343,-3 -3,-3l-1.046,0l-0,-11.32c-0,-0.552 -0.448,-1 -1,-1l-31.954,0c-1.857,-0 -3.637,0.737 -4.95,2.05c-1.313,1.313 -2.05,3.093 -2.05,4.95Zm16.491,13.208l-1,-1.732c-0.276,-0.478 -0.888,-0.642 -1.366,-0.366c-0.478,0.276 -0.642,0.888 -0.366,1.366l1,1.732c0.276,0.478 0.888,0.642 1.366,0.366c0.478,-0.276 0.642,-0.888 0.366,-1.366Zm12.75,1l1,-1.732c0.276,-0.478 0.112,-1.09 -0.366,-1.366c-0.478,-0.276 -1.09,-0.112 -1.366,0.366l-1,1.732c-0.276,0.478 -0.112,1.09 0.366,1.366c0.478,0.276 1.09,0.112 1.366,-0.366Zm-6.241,-2.208l0,-2c0,-0.552 -0.448,-1 -1,-1c-0.552,-0 -1,0.448 -1,1l0,2c0,0.552 0.448,1 1,1c0.552,-0 1,-0.448 1,-1Z"/>
</g>
</svg>